<svg xmlns="http://www.w3.org/2000/svg" xmlns:xlink="http://www.w3.org/1999/xlink" width="500" zoomAndPan="magnify" viewBox="0 0 375 374.999991" height="500" preserveAspectRatio="xMidYMid meet" version="1.2"><defs><clipPath id="9a8d7c9238"><rect x="0" width="355" y="0" height="86"/></clipPath><clipPath id="966585b0e4"><rect x="0" width="47" y="0" height="36"/></clipPath></defs><g id="bd796e42c2"><g transform="matrix(1,0,0,1,10,136)"><g clip-path="url(#9a8d7c9238)"><g style="fill:#000000;fill-opacity:1;"><g transform="translate(1.329447, 62.571626)"><path style="stroke:none" d="M 4.953125 0 L 4.953125 -41.265625 L 32.078125 -41.265625 L 32.078125 -33.375 L 14.265625 -33.375 L 14.265625 -24.8125 L 30.484375 -24.8125 L 30.484375 -16.984375 L 14.265625 -16.984375 L 14.265625 -7.953125 L 32.71875 -7.953125 L 32.71875 0 Z M 4.953125 0 "/></g></g><g style="fill:#000000;fill-opacity:1;"><g transform="translate(37.056195, 62.571626)"><path style="stroke:none" d="M 16.390625 0 L 0.53125 -41.265625 L 10.609375 -41.265625 L 16.09375 -26.59375 L 21.046875 -13.5 L 31.421875 -41.265625 L 41.4375 -41.265625 L 25.578125 0 Z M 16.390625 0 "/></g></g><g style="fill:#000000;fill-opacity:1;"><g transform="translate(79.032183, 62.571626)"><path style="stroke:none" d=""/></g></g><g style="fill:#000000;fill-opacity:1;"><g transform="translate(92.886623, 62.571626)"><path style="stroke:none" d="M 23.875 0.828125 C 19.707031 0.828125 16.007812 -0.0820312 12.78125 -1.90625 C 9.5625 -3.738281 7.046875 -6.265625 5.234375 -9.484375 C 3.429688 -12.710938 2.53125 -16.429688 2.53125 -20.640625 C 2.53125 -24.835938 3.429688 -28.546875 5.234375 -31.765625 C 7.046875 -34.992188 9.550781 -37.519531 12.75 -39.34375 C 15.957031 -41.175781 19.644531 -42.09375 23.8125 -42.09375 C 27.3125 -42.09375 30.515625 -41.421875 33.421875 -40.078125 C 36.328125 -38.742188 38.773438 -36.859375 40.765625 -34.421875 C 42.753906 -31.992188 44.140625 -29.128906 44.921875 -25.828125 L 35.25 -25.828125 C 34.46875 -28.097656 33.070312 -29.890625 31.0625 -31.203125 C 29.0625 -32.523438 26.742188 -33.1875 24.109375 -33.1875 C 21.796875 -33.1875 19.722656 -32.65625 17.890625 -31.59375 C 16.066406 -30.53125 14.640625 -29.054688 13.609375 -27.171875 C 12.585938 -25.285156 12.078125 -23.109375 12.078125 -20.640625 C 12.078125 -18.160156 12.585938 -15.976562 13.609375 -14.09375 C 14.640625 -12.207031 16.054688 -10.734375 17.859375 -9.671875 C 19.671875 -8.609375 21.734375 -8.078125 24.046875 -8.078125 C 26.765625 -8.078125 29.144531 -8.773438 31.1875 -10.171875 C 33.226562 -11.566406 34.679688 -13.441406 35.546875 -15.796875 L 45.21875 -15.796875 C 44.550781 -12.453125 43.210938 -9.53125 41.203125 -7.03125 C 39.203125 -4.539062 36.71875 -2.609375 33.75 -1.234375 C 30.78125 0.140625 27.488281 0.828125 23.875 0.828125 Z M 23.875 0.828125 "/></g><g transform="translate(140.463347, 62.571626)"><path style="stroke:none" d="M 30.484375 0 L 30.484375 -16.625 L 14.328125 -16.625 L 14.328125 0 L 4.953125 0 L 4.953125 -41.265625 L 14.328125 -41.265625 L 14.328125 -25.40625 L 30.484375 -25.40625 L 30.484375 -41.265625 L 39.859375 -41.265625 L 39.859375 0 Z M 30.484375 0 "/></g><g transform="translate(185.269183, 62.571626)"><path style="stroke:none" d="M 0.53125 0 L 16.921875 -41.265625 L 26.109375 -41.265625 L 42.5 0 L 32.484375 0 L 29.71875 -7.140625 L 13.328125 -7.140625 L 10.546875 0 Z M 15.734375 -14.5 L 27.359375 -14.5 L 21.515625 -29.59375 Z M 15.734375 -14.5 "/></g></g><g style="fill:#000000;fill-opacity:1;"><g transform="translate(228.306357, 62.571626)"><path style="stroke:none" d="M 4.953125 0 L 4.953125 -41.265625 L 22.578125 -41.265625 C 25.722656 -41.265625 28.453125 -40.691406 30.765625 -39.546875 C 33.085938 -38.410156 34.878906 -36.78125 36.140625 -34.65625 C 37.398438 -32.539062 38.03125 -30.007812 38.03125 -27.0625 C 38.03125 -24.03125 37.335938 -21.421875 35.953125 -19.234375 C 34.578125 -17.054688 32.65625 -15.421875 30.1875 -14.328125 L 38.734375 0 L 27.890625 0 L 20.515625 -12.859375 L 14.328125 -12.859375 L 14.328125 0 Z M 14.203125 -20.75 L 21.34375 -20.75 C 23.65625 -20.75 25.429688 -21.289062 26.671875 -22.375 C 27.910156 -23.457031 28.53125 -25 28.53125 -27 C 28.53125 -29 27.910156 -30.539062 26.671875 -31.625 C 25.429688 -32.707031 23.65625 -33.25 21.34375 -33.25 L 14.203125 -33.25 Z M 14.203125 -20.75 "/></g></g><g style="fill:#000000;fill-opacity:1;"><g transform="translate(269.810706, 62.571626)"><path style="stroke:none" d="M 24.171875 0.828125 C 19.960938 0.828125 16.226562 -0.0820312 12.96875 -1.90625 C 9.707031 -3.738281 7.148438 -6.265625 5.296875 -9.484375 C 3.453125 -12.710938 2.53125 -16.429688 2.53125 -20.640625 C 2.53125 -24.835938 3.441406 -28.546875 5.265625 -31.765625 C 7.097656 -34.992188 9.632812 -37.519531 12.875 -39.34375 C 16.125 -41.175781 19.832031 -42.09375 24 -42.09375 C 27.332031 -42.09375 30.414062 -41.503906 33.25 -40.328125 C 36.082031 -39.148438 38.488281 -37.488281 40.46875 -35.34375 C 42.457031 -33.195312 43.863281 -30.671875 44.6875 -27.765625 L 34.609375 -27.765625 C 33.617188 -29.578125 32.210938 -30.984375 30.390625 -31.984375 C 28.566406 -32.984375 26.492188 -33.484375 24.171875 -33.484375 C 21.773438 -33.484375 19.648438 -32.929688 17.796875 -31.828125 C 15.953125 -30.734375 14.507812 -29.222656 13.46875 -27.296875 C 12.425781 -25.367188 11.90625 -23.148438 11.90625 -20.640625 C 11.90625 -18.160156 12.414062 -15.957031 13.4375 -14.03125 C 14.457031 -12.101562 15.890625 -10.578125 17.734375 -9.453125 C 19.585938 -8.335938 21.769531 -7.78125 24.28125 -7.78125 C 27.3125 -7.78125 29.828125 -8.546875 31.828125 -10.078125 C 33.835938 -11.609375 35.132812 -13.632812 35.71875 -16.15625 L 22.34375 -16.15625 L 22.34375 -23.40625 L 45.625 -23.40625 C 45.863281 -19.863281 45.519531 -16.617188 44.59375 -13.671875 C 43.675781 -10.722656 42.265625 -8.160156 40.359375 -5.984375 C 38.453125 -3.804688 36.128906 -2.125 33.390625 -0.9375 C 30.660156 0.238281 27.585938 0.828125 24.171875 0.828125 Z M 24.171875 0.828125 "/></g></g><g style="fill:#000000;fill-opacity:1;"><g transform="translate(317.918025, 62.571626)"><path style="stroke:none" d="M 4.953125 0 L 4.953125 -41.265625 L 32.078125 -41.265625 L 32.078125 -33.375 L 14.265625 -33.375 L 14.265625 -24.8125 L 30.484375 -24.8125 L 30.484375 -16.984375 L 14.265625 -16.984375 L 14.265625 -7.953125 L 32.71875 -7.953125 L 32.71875 0 Z M 4.953125 0 "/></g></g></g></g><g transform="matrix(1,0,0,1,317,197)"><g clip-path="url(#966585b0e4)"><g style="fill:#000000;fill-opacity:1;"><g transform="translate(1.543273, 26.732799)"><path style="stroke:none" d="M 1.96875 0 L 1.96875 -18.671875 L 4.21875 -18.671875 L 4.21875 0 Z M 1.96875 0 "/></g></g><g style="fill:#000000;fill-opacity:1;"><g transform="translate(7.729478, 26.732799)"><path style="stroke:none" d="M 1.96875 0 L 1.96875 -18.671875 L 4.21875 -18.671875 L 14.15625 -3.703125 L 14.15625 -18.671875 L 16.40625 -18.671875 L 16.40625 0 L 14.15625 0 L 4.21875 -14.96875 L 4.21875 0 Z M 1.96875 0 "/></g></g><g style="fill:#000000;fill-opacity:1;"><g transform="translate(26.101446, 26.732799)"><path style="stroke:none" d="M 10.15625 0.3125 C 8.332031 0.3125 6.753906 -0.0859375 5.421875 -0.890625 C 4.097656 -1.703125 3.070312 -2.832031 2.34375 -4.28125 C 1.613281 -5.726562 1.25 -7.410156 1.25 -9.328125 C 1.25 -11.234375 1.613281 -12.910156 2.34375 -14.359375 C 3.070312 -15.804688 4.097656 -16.9375 5.421875 -17.75 C 6.753906 -18.570312 8.332031 -18.984375 10.15625 -18.984375 C 12.289062 -18.984375 14.03125 -18.472656 15.375 -17.453125 C 16.71875 -16.429688 17.578125 -15.003906 17.953125 -13.171875 L 15.46875 -13.171875 C 15.1875 -14.328125 14.601562 -15.253906 13.71875 -15.953125 C 12.84375 -16.660156 11.65625 -17.015625 10.15625 -17.015625 C 8.820312 -17.015625 7.65625 -16.707031 6.65625 -16.09375 C 5.664062 -15.476562 4.898438 -14.597656 4.359375 -13.453125 C 3.816406 -12.304688 3.546875 -10.929688 3.546875 -9.328125 C 3.546875 -7.734375 3.816406 -6.363281 4.359375 -5.21875 C 4.898438 -4.070312 5.664062 -3.191406 6.65625 -2.578125 C 7.65625 -1.960938 8.820312 -1.65625 10.15625 -1.65625 C 11.65625 -1.65625 12.84375 -1.992188 13.71875 -2.671875 C 14.601562 -3.359375 15.1875 -4.273438 15.46875 -5.421875 L 17.953125 -5.421875 C 17.578125 -3.617188 16.71875 -2.210938 15.375 -1.203125 C 14.03125 -0.191406 12.289062 0.3125 10.15625 0.3125 Z M 10.15625 0.3125 "/></g></g></g></g><path style="fill:none;stroke-width:3;stroke-linecap:round;stroke-linejoin:miter;stroke:#000000;stroke-opacity:1;stroke-miterlimit:4;" d="M 1.497485 1.500383 L 239.513126 1.500383 " transform="matrix(0.75,0,0,0.75,118.900324,216.437213)"/><path style="fill:none;stroke-width:3;stroke-linecap:round;stroke-linejoin:miter;stroke:#000000;stroke-opacity:1;stroke-miterlimit:4;" d="M 1.500256 1.502461 L 22.452213 1.497918 " transform="matrix(-0.465409,-0.588128,0.588128,-0.465409,309.822407,224.198788)"/><path style="fill:none;stroke-width:3;stroke-linecap:round;stroke-linejoin:miter;stroke:#000000;stroke-opacity:1;stroke-miterlimit:4;" d="M 1.501613 1.500745 L 22.450339 1.500287 " transform="matrix(-0.465409,-0.588128,0.588128,-0.465409,313.995922,224.198788)"/></g></svg>